<mxfile host="Electron" agent="Mozilla/5.0 (Windows NT 10.0; Win64; x64) AppleWebKit/537.36 (KHTML, like Gecko) draw.io/24.7.5 Chrome/126.0.6478.183 Electron/31.3.0 Safari/537.36" version="24.7.5">
  <diagram id="GYhyZ-raUVNj0wQR4c2P" name="Page-1">
    <mxGraphModel dx="3386" dy="1286" grid="1" gridSize="10" guides="1" tooltips="1" connect="1" arrows="1" fold="1" page="1" pageScale="1" pageWidth="1180" pageHeight="350" background="none" math="0" shadow="0">
      <root>
        <mxCell id="0" />
        <mxCell id="1" parent="0" />
        <mxCell id="group:telescope" value="" style="group;fontSize=14;labelBackgroundColor=none;fontColor=none;noLabel=1;" parent="1" vertex="1" connectable="0">
          <mxGeometry x="980" y="20" width="180" height="120" as="geometry" />
        </mxCell>
        <mxCell id="node:telescope" value="telescope" style="rounded=0;whiteSpace=wrap;html=1;fontSize=17;" parent="group:telescope" vertex="1">
          <mxGeometry width="180" height="120" as="geometry" />
        </mxCell>
        <mxCell id="output:telescope:out" value="out" style="rounded=0;whiteSpace=wrap;html=1;strokeColor=#FF0000;" parent="group:telescope" vertex="1">
          <mxGeometry y="80" width="80" height="40" as="geometry" />
        </mxCell>
        <mxCell id="group:source" value="" style="group" parent="1" vertex="1" connectable="0">
          <mxGeometry x="980" y="200" width="180" height="120" as="geometry" />
        </mxCell>
        <mxCell id="node:source" value="&lt;font style=&quot;font-size: 18px;&quot;&gt;source&lt;/font&gt;" style="rounded=0;whiteSpace=wrap;html=1;" parent="group:source" vertex="1">
          <mxGeometry width="180" height="120" as="geometry" />
        </mxCell>
        <mxCell id="output:source:out" value="out" style="rounded=0;whiteSpace=wrap;html=1;strokeColor=#FF0000;" parent="group:source" vertex="1">
          <mxGeometry y="80" width="80" height="40" as="geometry" />
        </mxCell>
        <mxCell id="group:fwtelsim" value="" style="group" parent="1" vertex="1" connectable="0">
          <mxGeometry x="650" y="200" width="180" height="120" as="geometry" />
        </mxCell>
        <mxCell id="node:fwtelsim" value="fwtelsim" style="rounded=0;whiteSpace=wrap;html=1;fontSize=18;" parent="group:fwtelsim" vertex="1">
          <mxGeometry width="180" height="120" as="geometry" />
        </mxCell>
        <mxCell id="input:fwtelsim:in" value="in" style="rounded=0;whiteSpace=wrap;html=1;strokeColor=#FF0000;" parent="group:fwtelsim" vertex="1">
          <mxGeometry x="110" y="80" width="70" height="40" as="geometry" />
        </mxCell>
        <mxCell id="output:fwtelsim:out" value="out" style="rounded=0;whiteSpace=wrap;html=1;strokeColor=#FF0000;" parent="group:fwtelsim" vertex="1">
          <mxGeometry y="80" width="70" height="40" as="geometry" />
        </mxCell>
        <mxCell id="link:fwtelsim:in2out" value="" style="endArrow=classic;html=1;exitX=0;exitY=0.5;exitDx=0;exitDy=0;entryX=1;entryY=0.5;entryDx=0;entryDy=0;strokeColor=#00FF00;dashed=1;" parent="group:fwtelsim" source="input:fwtelsim:in" target="output:fwtelsim:out" edge="1">
          <mxGeometry width="50" height="50" relative="1" as="geometry" />
        </mxCell>
        <mxCell id="group:pickoff" value="" style="group;movable=0;resizable=0;rotatable=0;deletable=0;editable=0;locked=1;connectable=0;" parent="1" vertex="1" connectable="0">
          <mxGeometry x="330" y="200" width="180" height="120" as="geometry" />
        </mxCell>
        <mxCell id="node:pickoff" value="&lt;font style=&quot;font-size: 18px;&quot;&gt;pickoff&lt;/font&gt;" style="rounded=0;whiteSpace=wrap;html=1;" parent="group:pickoff" vertex="1">
          <mxGeometry width="180" height="120" as="geometry" />
        </mxCell>
        <mxCell id="input:pickoff:tel" value="tel" style="rounded=0;inwhiteSpace=wrap;html=1;strokeColor=#FF0000;" parent="group:pickoff" vertex="1">
          <mxGeometry x="110" width="70" height="40" as="geometry" />
        </mxCell>
        <mxCell id="input:pickoff:lab" value="lab" style="rounded=0;whiteSpace=wrap;html=1;strokeColor=#FF0000;" parent="group:pickoff" vertex="1">
          <mxGeometry x="110" y="80" width="70" height="40" as="geometry" />
        </mxCell>
        <mxCell id="output:pickoff:out" value="out" style="rounded=0;whiteSpace=wrap;html=1;strokeColor=#FF0000;" parent="group:pickoff" vertex="1">
          <mxGeometry y="80" width="70" height="40" as="geometry" />
        </mxCell>
        <mxCell id="link:pickoff:lab2out" value="" style="endArrow=classic;html=1;exitX=0;exitY=0.5;exitDx=0;exitDy=0;entryX=1;entryY=0.5;entryDx=0;entryDy=0;strokeColor=#00FF00;dashed=1;" parent="group:pickoff" source="input:pickoff:lab" target="output:pickoff:out" edge="1">
          <mxGeometry width="50" height="50" relative="1" as="geometry" />
        </mxCell>
        <mxCell id="link:pickoff:tel2out" value="" style="endArrow=classic;html=1;dashed=1;strokeColor=#00FF00;exitX=0;exitY=0.5;exitDx=0;exitDy=0;entryX=0.5;entryY=0;entryDx=0;entryDy=0;" parent="group:pickoff" source="input:pickoff:tel" target="output:pickoff:out" edge="1">
          <mxGeometry width="50" height="50" relative="1" as="geometry">
            <Array as="points">
              <mxPoint x="35" y="20" />
            </Array>
          </mxGeometry>
        </mxCell>
        <mxCell id="group:stagek" value="" style="group" parent="1" connectable="0" vertex="1">
          <mxGeometry x="10" y="200" width="180" height="120" as="geometry" />
        </mxCell>
        <mxCell id="node:stagek" value="stagek" style="rounded=0;whiteSpace=wrap;html=1;fontSize=18;" parent="group:stagek" vertex="1">
          <mxGeometry width="180" height="120" as="geometry" />
        </mxCell>
        <mxCell id="input:stagek:in" value="in" style="rounded=0;whiteSpace=wrap;html=1;strokeColor=#FF0000;" parent="group:stagek" vertex="1">
          <mxGeometry x="110" y="80" width="70" height="40" as="geometry" />
        </mxCell>
        <mxCell id="output:stagek:out" value="out" style="rounded=0;whiteSpace=wrap;html=1;strokeColor=#FF0000;" parent="group:stagek" vertex="1">
          <mxGeometry y="80" width="70" height="40" as="geometry" />
        </mxCell>
        <mxCell id="link:stagek:in2out" value="" style="endArrow=classic;html=1;dashed=1;strokeColor=#00FF00;exitX=0;exitY=0.5;exitDx=0;exitDy=0;entryX=1;entryY=0.5;entryDx=0;entryDy=0;" parent="group:stagek" source="input:stagek:in" target="output:stagek:out" edge="1">
          <mxGeometry width="50" height="50" relative="1" as="geometry" />
        </mxCell>
        <mxCell id="beam:telescope2pickoff" value="telescope2pickoff" style="edgeStyle=elbowEdgeStyle;elbow=horizontal;endArrow=classic;html=1;curved=0;rounded=0;endSize=8;startSize=8;entryX=1;entryY=0.5;entryDx=0;entryDy=0;exitX=0;exitY=0.5;exitDx=0;exitDy=0;strokeColor=#FF0000;strokeWidth=2;fontColor=#FF0000;fontSize=14;" parent="1" source="output:telescope:out" target="input:pickoff:tel" edge="1">
          <mxGeometry relative="1" as="geometry">
            <Array as="points">
              <mxPoint x="570" y="200" />
            </Array>
          </mxGeometry>
        </mxCell>
        <mxCell id="beam:source2fwtelsim" value="source2fwtelsim" style="endArrow=classic;html=1;exitX=0;exitY=0.5;exitDx=0;exitDy=0;entryX=1;entryY=0.5;entryDx=0;entryDy=0;strokeColor=#FF0000;strokeWidth=2;fontColor=#FF0000;fontSize=14;" parent="1" source="output:source:out" target="input:fwtelsim:in" edge="1">
          <mxGeometry relative="1" as="geometry" />
        </mxCell>
        <mxCell id="beam:fwtelsim2pickoff" value="fwtelsim2pickoff" style="endArrow=classic;html=1;exitX=0;exitY=0.5;exitDx=0;exitDy=0;entryX=1;entryY=0.5;entryDx=0;entryDy=0;strokeColor=#FF0000;strokeWidth=2;fontColor=#FF0000;fontSize=14;" parent="1" source="output:fwtelsim:out" target="input:pickoff:lab" edge="1">
          <mxGeometry relative="1" as="geometry" />
        </mxCell>
        <mxCell id="beam:pickoff2stagek" value="pickoff2stagek" style="endArrow=classic;html=1;exitX=0;exitY=0.5;exitDx=0;exitDy=0;entryX=1;entryY=0.5;entryDx=0;entryDy=0;strokeColor=#FF0000;strokeWidth=2;fontColor=#FF0000;fontSize=14;" parent="1" source="output:pickoff:out" target="input:stagek:in" edge="1">
          <mxGeometry relative="1" as="geometry" />
        </mxCell>
        <object label="" id="Jk5fCZVagYwKg4o_EyFw-1">
          <mxCell style="group" connectable="0" vertex="1" parent="1">
            <mxGeometry x="-312" y="200" width="180" height="120" as="geometry" />
          </mxCell>
        </object>
        <object label="ttmpupil" id="Jk5fCZVagYwKg4o_EyFw-2">
          <mxCell style="rounded=0;whiteSpace=wrap;html=1;fontSize=18;" vertex="1" parent="Jk5fCZVagYwKg4o_EyFw-1">
            <mxGeometry width="180" height="120" as="geometry" />
          </mxCell>
        </object>
        <mxCell id="Jk5fCZVagYwKg4o_EyFw-3" value="in" style="rounded=0;whiteSpace=wrap;html=1;strokeColor=#FF0000;" vertex="1" parent="Jk5fCZVagYwKg4o_EyFw-1">
          <mxGeometry x="110" y="80" width="70" height="40" as="geometry" />
        </mxCell>
        <mxCell id="Jk5fCZVagYwKg4o_EyFw-4" value="out" style="rounded=0;whiteSpace=wrap;html=1;strokeColor=#FF0000;" vertex="1" parent="Jk5fCZVagYwKg4o_EyFw-1">
          <mxGeometry y="80" width="70" height="40" as="geometry" />
        </mxCell>
        <mxCell id="Jk5fCZVagYwKg4o_EyFw-5" value="" style="endArrow=classic;html=1;dashed=1;strokeColor=#00FF00;exitX=0;exitY=0.5;exitDx=0;exitDy=0;entryX=1;entryY=0.5;entryDx=0;entryDy=0;" edge="1" parent="Jk5fCZVagYwKg4o_EyFw-1" source="Jk5fCZVagYwKg4o_EyFw-3" target="Jk5fCZVagYwKg4o_EyFw-4">
          <mxGeometry width="50" height="50" relative="1" as="geometry" />
        </mxCell>
        <mxCell id="Jk5fCZVagYwKg4o_EyFw-7" value="" style="group" connectable="0" vertex="1" parent="1">
          <mxGeometry x="-637" y="200" width="184" height="125" as="geometry" />
        </mxCell>
        <mxCell id="Jk5fCZVagYwKg4o_EyFw-8" value="flipacq" style="rounded=0;whiteSpace=wrap;html=1;fontSize=18;" vertex="1" parent="Jk5fCZVagYwKg4o_EyFw-7">
          <mxGeometry width="180" height="120" as="geometry" />
        </mxCell>
        <mxCell id="Jk5fCZVagYwKg4o_EyFw-9" value="in" style="rounded=0;whiteSpace=wrap;html=1;strokeColor=#FF0000;" vertex="1" parent="Jk5fCZVagYwKg4o_EyFw-7">
          <mxGeometry x="110" y="80" width="70" height="40" as="geometry" />
        </mxCell>
        <mxCell id="Jk5fCZVagYwKg4o_EyFw-10" value="out" style="rounded=0;whiteSpace=wrap;html=1;strokeColor=#FF0000;" vertex="1" parent="Jk5fCZVagYwKg4o_EyFw-7">
          <mxGeometry y="80" width="70" height="40" as="geometry" />
        </mxCell>
        <mxCell id="Jk5fCZVagYwKg4o_EyFw-11" value="" style="endArrow=classic;html=1;dashed=1;strokeColor=#00FF00;exitX=0;exitY=0.5;exitDx=0;exitDy=0;entryX=1;entryY=0.5;entryDx=0;entryDy=0;" edge="1" parent="Jk5fCZVagYwKg4o_EyFw-7" source="Jk5fCZVagYwKg4o_EyFw-9" target="Jk5fCZVagYwKg4o_EyFw-10">
          <mxGeometry width="50" height="50" relative="1" as="geometry" />
        </mxCell>
        <mxCell id="Jk5fCZVagYwKg4o_EyFw-12" value="" style="group" connectable="0" vertex="1" parent="1">
          <mxGeometry x="-633" y="4" width="180" height="120" as="geometry" />
        </mxCell>
        <mxCell id="Jk5fCZVagYwKg4o_EyFw-13" value="camacq" style="rounded=0;whiteSpace=wrap;html=1;fontSize=18;" vertex="1" parent="Jk5fCZVagYwKg4o_EyFw-12">
          <mxGeometry width="180" height="120" as="geometry" />
        </mxCell>
        <mxCell id="Jk5fCZVagYwKg4o_EyFw-14" value="in" style="rounded=0;whiteSpace=wrap;html=1;strokeColor=#FF0000;" vertex="1" parent="Jk5fCZVagYwKg4o_EyFw-12">
          <mxGeometry x="110" y="80" width="70" height="40" as="geometry" />
        </mxCell>
        <mxCell id="Jk5fCZVagYwKg4o_EyFw-15" value="out" style="rounded=0;whiteSpace=wrap;html=1;strokeColor=#FF0000;" vertex="1" parent="Jk5fCZVagYwKg4o_EyFw-12">
          <mxGeometry y="80" width="70" height="40" as="geometry" />
        </mxCell>
        <mxCell id="Jk5fCZVagYwKg4o_EyFw-16" value="" style="endArrow=classic;html=1;dashed=1;strokeColor=#00FF00;exitX=0;exitY=0.5;exitDx=0;exitDy=0;entryX=1;entryY=0.5;entryDx=0;entryDy=0;" edge="1" parent="Jk5fCZVagYwKg4o_EyFw-12" source="Jk5fCZVagYwKg4o_EyFw-14" target="Jk5fCZVagYwKg4o_EyFw-15">
          <mxGeometry width="50" height="50" relative="1" as="geometry" />
        </mxCell>
        <mxCell id="Jk5fCZVagYwKg4o_EyFw-17" value="" style="group" connectable="0" vertex="1" parent="1">
          <mxGeometry x="-926" y="200" width="180" height="120" as="geometry" />
        </mxCell>
        <mxCell id="Jk5fCZVagYwKg4o_EyFw-18" value="dmwoofer" style="rounded=0;whiteSpace=wrap;html=1;fontSize=18;" vertex="1" parent="Jk5fCZVagYwKg4o_EyFw-17">
          <mxGeometry width="180" height="120" as="geometry" />
        </mxCell>
        <mxCell id="Jk5fCZVagYwKg4o_EyFw-19" value="in" style="rounded=0;whiteSpace=wrap;html=1;strokeColor=#FF0000;" vertex="1" parent="Jk5fCZVagYwKg4o_EyFw-17">
          <mxGeometry x="110" y="80" width="70" height="40" as="geometry" />
        </mxCell>
        <mxCell id="Jk5fCZVagYwKg4o_EyFw-20" value="out" style="rounded=0;whiteSpace=wrap;html=1;strokeColor=#FF0000;" vertex="1" parent="Jk5fCZVagYwKg4o_EyFw-17">
          <mxGeometry y="80" width="70" height="40" as="geometry" />
        </mxCell>
        <mxCell id="Jk5fCZVagYwKg4o_EyFw-21" value="" style="endArrow=classic;html=1;dashed=1;strokeColor=#00FF00;exitX=0;exitY=0.5;exitDx=0;exitDy=0;entryX=1;entryY=0.5;entryDx=0;entryDy=0;" edge="1" parent="Jk5fCZVagYwKg4o_EyFw-17" source="Jk5fCZVagYwKg4o_EyFw-19" target="Jk5fCZVagYwKg4o_EyFw-20">
          <mxGeometry width="50" height="50" relative="1" as="geometry" />
        </mxCell>
        <mxCell id="Jk5fCZVagYwKg4o_EyFw-22" value="" style="group" connectable="0" vertex="1" parent="1">
          <mxGeometry x="-926" y="384" width="180" height="120" as="geometry" />
        </mxCell>
        <mxCell id="Jk5fCZVagYwKg4o_EyFw-23" value="dmtweeter" style="rounded=0;whiteSpace=wrap;html=1;fontSize=18;" vertex="1" parent="Jk5fCZVagYwKg4o_EyFw-22">
          <mxGeometry width="180" height="120" as="geometry" />
        </mxCell>
        <mxCell id="Jk5fCZVagYwKg4o_EyFw-24" value="in" style="rounded=0;whiteSpace=wrap;html=1;strokeColor=#FF0000;" vertex="1" parent="Jk5fCZVagYwKg4o_EyFw-22">
          <mxGeometry x="110" y="80" width="70" height="40" as="geometry" />
        </mxCell>
        <mxCell id="Jk5fCZVagYwKg4o_EyFw-25" value="out" style="rounded=0;whiteSpace=wrap;html=1;strokeColor=#FF0000;" vertex="1" parent="Jk5fCZVagYwKg4o_EyFw-22">
          <mxGeometry y="80" width="70" height="40" as="geometry" />
        </mxCell>
        <mxCell id="Jk5fCZVagYwKg4o_EyFw-26" value="" style="endArrow=classic;html=1;dashed=1;strokeColor=#00FF00;exitX=0;exitY=0.5;exitDx=0;exitDy=0;entryX=1;entryY=0.5;entryDx=0;entryDy=0;" edge="1" parent="Jk5fCZVagYwKg4o_EyFw-22" source="Jk5fCZVagYwKg4o_EyFw-24" target="Jk5fCZVagYwKg4o_EyFw-25">
          <mxGeometry width="50" height="50" relative="1" as="geometry" />
        </mxCell>
        <mxCell id="Jk5fCZVagYwKg4o_EyFw-27" value="" style="group" connectable="0" vertex="1" parent="1">
          <mxGeometry x="-635" y="387" width="180" height="120" as="geometry" />
        </mxCell>
        <mxCell id="Jk5fCZVagYwKg4o_EyFw-28" value="stageadc" style="rounded=0;whiteSpace=wrap;html=1;fontSize=18;" vertex="1" parent="Jk5fCZVagYwKg4o_EyFw-27">
          <mxGeometry width="180" height="120" as="geometry" />
        </mxCell>
        <mxCell id="Jk5fCZVagYwKg4o_EyFw-29" value="in" style="rounded=0;whiteSpace=wrap;html=1;strokeColor=#FF0000;" vertex="1" parent="Jk5fCZVagYwKg4o_EyFw-27">
          <mxGeometry x="110" y="80" width="70" height="40" as="geometry" />
        </mxCell>
        <mxCell id="Jk5fCZVagYwKg4o_EyFw-30" value="out" style="rounded=0;whiteSpace=wrap;html=1;strokeColor=#FF0000;" vertex="1" parent="Jk5fCZVagYwKg4o_EyFw-27">
          <mxGeometry y="80" width="70" height="40" as="geometry" />
        </mxCell>
        <mxCell id="Jk5fCZVagYwKg4o_EyFw-31" value="" style="endArrow=classic;html=1;dashed=1;strokeColor=#00FF00;exitX=0;exitY=0.5;exitDx=0;exitDy=0;entryX=1;entryY=0.5;entryDx=0;entryDy=0;" edge="1" parent="Jk5fCZVagYwKg4o_EyFw-27" source="Jk5fCZVagYwKg4o_EyFw-29" target="Jk5fCZVagYwKg4o_EyFw-30">
          <mxGeometry width="50" height="50" relative="1" as="geometry" />
        </mxCell>
        <mxCell id="Jk5fCZVagYwKg4o_EyFw-32" value="" style="group" connectable="0" vertex="1" parent="1">
          <mxGeometry x="980" y="387" width="180" height="120" as="geometry" />
        </mxCell>
        <mxCell id="Jk5fCZVagYwKg4o_EyFw-33" value="ttmperi" style="rounded=0;whiteSpace=wrap;html=1;fontSize=18;" vertex="1" parent="Jk5fCZVagYwKg4o_EyFw-32">
          <mxGeometry width="180" height="120" as="geometry" />
        </mxCell>
        <mxCell id="Jk5fCZVagYwKg4o_EyFw-34" value="in" style="rounded=0;whiteSpace=wrap;html=1;strokeColor=#FF0000;" vertex="1" parent="Jk5fCZVagYwKg4o_EyFw-32">
          <mxGeometry x="110" y="80" width="70" height="40" as="geometry" />
        </mxCell>
        <mxCell id="Jk5fCZVagYwKg4o_EyFw-35" value="out" style="rounded=0;whiteSpace=wrap;html=1;strokeColor=#FF0000;" vertex="1" parent="Jk5fCZVagYwKg4o_EyFw-32">
          <mxGeometry y="80" width="70" height="40" as="geometry" />
        </mxCell>
        <mxCell id="Jk5fCZVagYwKg4o_EyFw-36" value="" style="endArrow=classic;html=1;dashed=1;strokeColor=#00FF00;exitX=0;exitY=0.5;exitDx=0;exitDy=0;entryX=1;entryY=0.5;entryDx=0;entryDy=0;" edge="1" parent="Jk5fCZVagYwKg4o_EyFw-32" source="Jk5fCZVagYwKg4o_EyFw-34" target="Jk5fCZVagYwKg4o_EyFw-35">
          <mxGeometry width="50" height="50" relative="1" as="geometry" />
        </mxCell>
        <mxCell id="Jk5fCZVagYwKg4o_EyFw-37" value="" style="group" connectable="0" vertex="1" parent="1">
          <mxGeometry x="980" y="577" width="180" height="120" as="geometry" />
        </mxCell>
        <mxCell id="Jk5fCZVagYwKg4o_EyFw-38" value="stagebs" style="rounded=0;whiteSpace=wrap;html=1;fontSize=18;" vertex="1" parent="Jk5fCZVagYwKg4o_EyFw-37">
          <mxGeometry width="180" height="120" as="geometry" />
        </mxCell>
        <mxCell id="Jk5fCZVagYwKg4o_EyFw-39" value="in" style="rounded=0;whiteSpace=wrap;html=1;strokeColor=#FF0000;" vertex="1" parent="Jk5fCZVagYwKg4o_EyFw-37">
          <mxGeometry x="110" y="80" width="70" height="40" as="geometry" />
        </mxCell>
        <mxCell id="Jk5fCZVagYwKg4o_EyFw-40" value="out" style="rounded=0;whiteSpace=wrap;html=1;strokeColor=#FF0000;" vertex="1" parent="Jk5fCZVagYwKg4o_EyFw-37">
          <mxGeometry y="80" width="70" height="40" as="geometry" />
        </mxCell>
        <mxCell id="Jk5fCZVagYwKg4o_EyFw-41" value="" style="endArrow=classic;html=1;dashed=1;strokeColor=#00FF00;exitX=0;exitY=0.5;exitDx=0;exitDy=0;entryX=1;entryY=0.5;entryDx=0;entryDy=0;" edge="1" parent="Jk5fCZVagYwKg4o_EyFw-37" source="Jk5fCZVagYwKg4o_EyFw-39" target="Jk5fCZVagYwKg4o_EyFw-40">
          <mxGeometry width="50" height="50" relative="1" as="geometry" />
        </mxCell>
        <mxCell id="Jk5fCZVagYwKg4o_EyFw-42" value="" style="group" connectable="0" vertex="1" parent="1">
          <mxGeometry x="980" y="764" width="180" height="120" as="geometry" />
        </mxCell>
        <mxCell id="Jk5fCZVagYwKg4o_EyFw-43" value="modttm" style="rounded=0;whiteSpace=wrap;html=1;fontSize=18;" vertex="1" parent="Jk5fCZVagYwKg4o_EyFw-42">
          <mxGeometry width="180" height="120" as="geometry" />
        </mxCell>
        <mxCell id="Jk5fCZVagYwKg4o_EyFw-44" value="in" style="rounded=0;whiteSpace=wrap;html=1;strokeColor=#FF0000;" vertex="1" parent="Jk5fCZVagYwKg4o_EyFw-42">
          <mxGeometry x="110" y="80" width="70" height="40" as="geometry" />
        </mxCell>
        <mxCell id="Jk5fCZVagYwKg4o_EyFw-45" value="out" style="rounded=0;whiteSpace=wrap;html=1;strokeColor=#FF0000;" vertex="1" parent="Jk5fCZVagYwKg4o_EyFw-42">
          <mxGeometry y="80" width="70" height="40" as="geometry" />
        </mxCell>
        <mxCell id="Jk5fCZVagYwKg4o_EyFw-46" value="" style="endArrow=classic;html=1;dashed=1;strokeColor=#00FF00;exitX=0;exitY=0.5;exitDx=0;exitDy=0;entryX=1;entryY=0.5;entryDx=0;entryDy=0;" edge="1" parent="Jk5fCZVagYwKg4o_EyFw-42" source="Jk5fCZVagYwKg4o_EyFw-44" target="Jk5fCZVagYwKg4o_EyFw-45">
          <mxGeometry width="50" height="50" relative="1" as="geometry" />
        </mxCell>
        <mxCell id="Jk5fCZVagYwKg4o_EyFw-47" value="" style="group" connectable="0" vertex="1" parent="1">
          <mxGeometry x="980" y="948" width="180" height="120" as="geometry" />
        </mxCell>
        <mxCell id="Jk5fCZVagYwKg4o_EyFw-48" value="flipwfsf" style="rounded=0;whiteSpace=wrap;html=1;fontSize=18;" vertex="1" parent="Jk5fCZVagYwKg4o_EyFw-47">
          <mxGeometry width="180" height="120" as="geometry" />
        </mxCell>
        <mxCell id="Jk5fCZVagYwKg4o_EyFw-49" value="in" style="rounded=0;whiteSpace=wrap;html=1;strokeColor=#FF0000;" vertex="1" parent="Jk5fCZVagYwKg4o_EyFw-47">
          <mxGeometry x="110" y="80" width="70" height="40" as="geometry" />
        </mxCell>
        <mxCell id="Jk5fCZVagYwKg4o_EyFw-50" value="out" style="rounded=0;whiteSpace=wrap;html=1;strokeColor=#FF0000;" vertex="1" parent="Jk5fCZVagYwKg4o_EyFw-47">
          <mxGeometry y="80" width="70" height="40" as="geometry" />
        </mxCell>
        <mxCell id="Jk5fCZVagYwKg4o_EyFw-51" value="" style="endArrow=classic;html=1;dashed=1;strokeColor=#00FF00;exitX=0;exitY=0.5;exitDx=0;exitDy=0;entryX=1;entryY=0.5;entryDx=0;entryDy=0;" edge="1" parent="Jk5fCZVagYwKg4o_EyFw-47" source="Jk5fCZVagYwKg4o_EyFw-49" target="Jk5fCZVagYwKg4o_EyFw-50">
          <mxGeometry width="50" height="50" relative="1" as="geometry" />
        </mxCell>
        <mxCell id="Jk5fCZVagYwKg4o_EyFw-52" value="" style="group" connectable="0" vertex="1" parent="1">
          <mxGeometry x="980" y="1133" width="180" height="120" as="geometry" />
        </mxCell>
        <mxCell id="Jk5fCZVagYwKg4o_EyFw-53" value="fliptip" style="rounded=0;whiteSpace=wrap;html=1;fontSize=18;" vertex="1" parent="Jk5fCZVagYwKg4o_EyFw-52">
          <mxGeometry width="180" height="120" as="geometry" />
        </mxCell>
        <mxCell id="Jk5fCZVagYwKg4o_EyFw-54" value="in" style="rounded=0;whiteSpace=wrap;html=1;strokeColor=#FF0000;" vertex="1" parent="Jk5fCZVagYwKg4o_EyFw-52">
          <mxGeometry x="110" y="80" width="70" height="40" as="geometry" />
        </mxCell>
        <mxCell id="Jk5fCZVagYwKg4o_EyFw-55" value="out" style="rounded=0;whiteSpace=wrap;html=1;strokeColor=#FF0000;" vertex="1" parent="Jk5fCZVagYwKg4o_EyFw-52">
          <mxGeometry y="80" width="70" height="40" as="geometry" />
        </mxCell>
        <mxCell id="Jk5fCZVagYwKg4o_EyFw-56" value="" style="endArrow=classic;html=1;dashed=1;strokeColor=#00FF00;exitX=0;exitY=0.5;exitDx=0;exitDy=0;entryX=1;entryY=0.5;entryDx=0;entryDy=0;" edge="1" parent="Jk5fCZVagYwKg4o_EyFw-52" source="Jk5fCZVagYwKg4o_EyFw-54" target="Jk5fCZVagYwKg4o_EyFw-55">
          <mxGeometry width="50" height="50" relative="1" as="geometry" />
        </mxCell>
        <mxCell id="Jk5fCZVagYwKg4o_EyFw-57" value="" style="group" connectable="0" vertex="1" parent="1">
          <mxGeometry x="980" y="1330" width="180" height="120" as="geometry" />
        </mxCell>
        <mxCell id="Jk5fCZVagYwKg4o_EyFw-58" value="stagecamlens" style="rounded=0;whiteSpace=wrap;html=1;fontSize=18;" vertex="1" parent="Jk5fCZVagYwKg4o_EyFw-57">
          <mxGeometry width="180" height="120" as="geometry" />
        </mxCell>
        <mxCell id="Jk5fCZVagYwKg4o_EyFw-59" value="in" style="rounded=0;whiteSpace=wrap;html=1;strokeColor=#FF0000;" vertex="1" parent="Jk5fCZVagYwKg4o_EyFw-57">
          <mxGeometry x="110" y="80" width="70" height="40" as="geometry" />
        </mxCell>
        <mxCell id="Jk5fCZVagYwKg4o_EyFw-60" value="out" style="rounded=0;whiteSpace=wrap;html=1;strokeColor=#FF0000;" vertex="1" parent="Jk5fCZVagYwKg4o_EyFw-57">
          <mxGeometry y="80" width="70" height="40" as="geometry" />
        </mxCell>
        <mxCell id="Jk5fCZVagYwKg4o_EyFw-61" value="" style="endArrow=classic;html=1;dashed=1;strokeColor=#00FF00;exitX=0;exitY=0.5;exitDx=0;exitDy=0;entryX=1;entryY=0.5;entryDx=0;entryDy=0;" edge="1" parent="Jk5fCZVagYwKg4o_EyFw-57" source="Jk5fCZVagYwKg4o_EyFw-59" target="Jk5fCZVagYwKg4o_EyFw-60">
          <mxGeometry width="50" height="50" relative="1" as="geometry" />
        </mxCell>
        <mxCell id="Jk5fCZVagYwKg4o_EyFw-62" value="" style="group" connectable="0" vertex="1" parent="1">
          <mxGeometry x="980" y="1520" width="180" height="120" as="geometry" />
        </mxCell>
        <mxCell id="Jk5fCZVagYwKg4o_EyFw-63" value="shwfs" style="rounded=0;whiteSpace=wrap;html=1;fontSize=18;" vertex="1" parent="Jk5fCZVagYwKg4o_EyFw-62">
          <mxGeometry width="180" height="120" as="geometry" />
        </mxCell>
        <mxCell id="Jk5fCZVagYwKg4o_EyFw-64" value="in" style="rounded=0;whiteSpace=wrap;html=1;strokeColor=#FF0000;" vertex="1" parent="Jk5fCZVagYwKg4o_EyFw-62">
          <mxGeometry x="110" y="80" width="70" height="40" as="geometry" />
        </mxCell>
        <mxCell id="Jk5fCZVagYwKg4o_EyFw-65" value="out" style="rounded=0;whiteSpace=wrap;html=1;strokeColor=#FF0000;" vertex="1" parent="Jk5fCZVagYwKg4o_EyFw-62">
          <mxGeometry y="80" width="70" height="40" as="geometry" />
        </mxCell>
        <mxCell id="Jk5fCZVagYwKg4o_EyFw-66" value="" style="endArrow=classic;html=1;dashed=1;strokeColor=#00FF00;exitX=0;exitY=0.5;exitDx=0;exitDy=0;entryX=1;entryY=0.5;entryDx=0;entryDy=0;" edge="1" parent="Jk5fCZVagYwKg4o_EyFw-62" source="Jk5fCZVagYwKg4o_EyFw-64" target="Jk5fCZVagYwKg4o_EyFw-65">
          <mxGeometry width="50" height="50" relative="1" as="geometry" />
        </mxCell>
        <mxCell id="Jk5fCZVagYwKg4o_EyFw-67" value="" style="group" connectable="0" vertex="1" parent="1">
          <mxGeometry x="980" y="1700" width="180" height="120" as="geometry" />
        </mxCell>
        <mxCell id="Jk5fCZVagYwKg4o_EyFw-68" value="camwfs" style="rounded=0;whiteSpace=wrap;html=1;fontSize=18;" vertex="1" parent="Jk5fCZVagYwKg4o_EyFw-67">
          <mxGeometry width="180" height="120" as="geometry" />
        </mxCell>
        <mxCell id="Jk5fCZVagYwKg4o_EyFw-69" value="in" style="rounded=0;whiteSpace=wrap;html=1;strokeColor=#FF0000;" vertex="1" parent="Jk5fCZVagYwKg4o_EyFw-67">
          <mxGeometry x="110" y="80" width="70" height="40" as="geometry" />
        </mxCell>
        <mxCell id="Jk5fCZVagYwKg4o_EyFw-70" value="out" style="rounded=0;whiteSpace=wrap;html=1;strokeColor=#FF0000;" vertex="1" parent="Jk5fCZVagYwKg4o_EyFw-67">
          <mxGeometry y="80" width="70" height="40" as="geometry" />
        </mxCell>
        <mxCell id="Jk5fCZVagYwKg4o_EyFw-71" value="" style="endArrow=classic;html=1;dashed=1;strokeColor=#00FF00;exitX=0;exitY=0.5;exitDx=0;exitDy=0;entryX=1;entryY=0.5;entryDx=0;entryDy=0;" edge="1" parent="Jk5fCZVagYwKg4o_EyFw-67" source="Jk5fCZVagYwKg4o_EyFw-69" target="Jk5fCZVagYwKg4o_EyFw-70">
          <mxGeometry width="50" height="50" relative="1" as="geometry" />
        </mxCell>
        <mxCell id="Jk5fCZVagYwKg4o_EyFw-75" value="stagek2ttmpupil" style="endArrow=classic;html=1;entryX=1;entryY=0.5;entryDx=0;entryDy=0;strokeColor=#FF0000;strokeWidth=2;fontColor=#FF0000;fontSize=14;exitX=0;exitY=0.5;exitDx=0;exitDy=0;" edge="1" parent="1" source="output:stagek:out" target="Jk5fCZVagYwKg4o_EyFw-3">
          <mxGeometry relative="1" as="geometry">
            <mxPoint x="8" y="300" as="sourcePoint" />
            <mxPoint x="200" y="310" as="targetPoint" />
          </mxGeometry>
        </mxCell>
        <mxCell id="Jk5fCZVagYwKg4o_EyFw-76" value="ttmpupil2flipacq" style="endArrow=classic;html=1;entryX=1;entryY=0.5;entryDx=0;entryDy=0;strokeColor=#FF0000;strokeWidth=2;fontColor=#FF0000;fontSize=14;exitX=0;exitY=0.5;exitDx=0;exitDy=0;" edge="1" parent="1" source="Jk5fCZVagYwKg4o_EyFw-4" target="Jk5fCZVagYwKg4o_EyFw-9">
          <mxGeometry relative="1" as="geometry">
            <mxPoint x="20" y="310" as="sourcePoint" />
            <mxPoint x="-122" y="310" as="targetPoint" />
          </mxGeometry>
        </mxCell>
      </root>
    </mxGraphModel>
  </diagram>
</mxfile>
